
      <svg xmlns="http://www.w3.org/2000/svg" version="1.1" width="2000" height="1000" style="display: block;"><polygon stroke-linejoin="round" stroke-miterlimit="1" stroke-width="1" points="2137.73291015625,1003.3099365234375 2098.4068603515625,1044.8763427734375 2200.0977783203125,1142.14208984375" style="fill:#741b00;stroke:#741b00;"></polygon><polygon stroke-linejoin="round" stroke-miterlimit="1" stroke-width="1" points="1979.9945068359375,929.3509521484375 2098.4068603515625,1044.8763427734375 2137.73291015625,1003.3099365234375" style="fill:#751b00;stroke:#751b00;"></polygon><polygon stroke-linejoin="round" stroke-miterlimit="1" stroke-width="1" points="2276.498779296875,834.9465637207031 1979.9945068359375,929.3509521484375 2137.73291015625,1003.3099365234375" style="fill:#751b00;stroke:#751b00;"></polygon><polygon stroke-linejoin="round" stroke-miterlimit="1" stroke-width="1" points="1991.5099487304688,896.4122009277344 1979.9945068359375,929.3509521484375 2276.498779296875,834.9465637207031" style="fill:#761c00;stroke:#761c00;"></polygon><polygon stroke-linejoin="round" stroke-miterlimit="1" stroke-width="1" points="2278.3450927734375,743.1152954101562 1991.5099487304688,896.4122009277344 2276.498779296875,834.9465637207031" style="fill:#751b00;stroke:#751b00;"></polygon><polygon stroke-linejoin="round" stroke-miterlimit="1" stroke-width="1" points="2118.486572265625,724.8596496582031 1991.5099487304688,896.4122009277344 2278.3450927734375,743.1152954101562" style="fill:#761c00;stroke:#761c00;"></polygon><polygon stroke-linejoin="round" stroke-miterlimit="1" stroke-width="1" points="2168.3533935546875,563.6525039672852 2118.486572265625,724.8596496582031 2278.3450927734375,743.1152954101562" style="fill:#751b00;stroke:#751b00;"></polygon><polygon stroke-linejoin="round" stroke-miterlimit="1" stroke-width="1" points="1976.9525146484375,652.0824890136719 2118.486572265625,724.8596496582031 2168.3533935546875,563.6525039672852" style="fill:#781c00;stroke:#781c00;"></polygon><polygon stroke-linejoin="round" stroke-miterlimit="1" stroke-width="1" points="2124.7886962890625,481.4013156890869 1976.9525146484375,652.0824890136719 2168.3533935546875,563.6525039672852" style="fill:#781d00;stroke:#781d00;"></polygon><polygon stroke-linejoin="round" stroke-miterlimit="1" stroke-width="1" points="1991.8485717773438,546.1064109802246 1976.9525146484375,652.0824890136719 2124.7886962890625,481.4013156890869" style="fill:#791d00;stroke:#791d00;"></polygon><polygon stroke-linejoin="round" stroke-miterlimit="1" stroke-width="1" points="2120.783203125,387.18128204345703 1991.8485717773438,546.1064109802246 2124.7886962890625,481.4013156890869" style="fill:#791d00;stroke:#791d00;"></polygon><polygon stroke-linejoin="round" stroke-miterlimit="1" stroke-width="1" points="1988.4044799804688,339.0929260253906 1991.8485717773438,546.1064109802246 2120.783203125,387.18128204345703" style="fill:#7a1d00;stroke:#7a1d00;"></polygon><polygon stroke-linejoin="round" stroke-miterlimit="1" stroke-width="1" points="2186.0528564453125,209.25469970703125 1988.4044799804688,339.0929260253906 2120.783203125,387.18128204345703" style="fill:#791d00;stroke:#791d00;"></polygon><polygon stroke-linejoin="round" stroke-miterlimit="1" stroke-width="1" points="2111.669921875,291.3015441894531 1988.4044799804688,339.0929260253906 2186.0528564453125,209.25469970703125" style="fill:#470900;stroke:#470900;"></polygon><polygon stroke-linejoin="round" stroke-miterlimit="1" stroke-width="1" points="2212.75048828125,206.73526000976562 2111.669921875,291.3015441894531 2186.0528564453125,209.25469970703125" style="fill:#470900;stroke:#470900;"></polygon><polygon stroke-linejoin="round" stroke-miterlimit="1" stroke-width="1" points="2118.0609130859375,138.8729248046875 2111.669921875,291.3015441894531 2212.75048828125,206.73526000976562" style="fill:#781d00;stroke:#781d00;"></polygon><polygon stroke-linejoin="round" stroke-miterlimit="1" stroke-width="1" points="2145.7239990234375,74.99667358398438 2118.0609130859375,138.8729248046875 2212.75048828125,206.73526000976562" style="fill:#781d00;stroke:#781d00;"></polygon><polygon stroke-linejoin="round" stroke-miterlimit="1" stroke-width="1" points="2042.791015625,90.6199951171875 2118.0609130859375,138.8729248046875 2145.7239990234375,74.99667358398438" style="fill:#791d00;stroke:#791d00;"></polygon><polygon stroke-linejoin="round" stroke-miterlimit="1" stroke-width="1" points="2130.77001953125,-112.55908203125 2042.791015625,90.6199951171875 2145.7239990234375,74.99667358398438" style="fill:#791d00;stroke:#791d00;"></polygon><polygon stroke-linejoin="round" stroke-miterlimit="1" stroke-width="1" points="1966.5693359375,-106.22802734375 2042.791015625,90.6199951171875 2130.77001953125,-112.55908203125" style="fill:#7b1e00;stroke:#7b1e00;"></polygon><polygon stroke-linejoin="round" stroke-miterlimit="1" stroke-width="1" points="1979.9945068359375,929.3509521484375 1859.387939453125,1028.1634521484375 2098.4068603515625,1044.8763427734375" style="fill:#771c00;stroke:#771c00;"></polygon><polygon stroke-linejoin="round" stroke-miterlimit="1" stroke-width="1" points="1902.2162475585938,1022.9947509765625 1859.387939453125,1028.1634521484375 1979.9945068359375,929.3509521484375" style="fill:#470900;stroke:#470900;"></polygon><polygon stroke-linejoin="round" stroke-miterlimit="1" stroke-width="1" points="1991.5099487304688,896.4122009277344 1902.2162475585938,1022.9947509765625 1979.9945068359375,929.3509521484375" style="fill:#781c00;stroke:#781c00;"></polygon><polygon stroke-linejoin="round" stroke-miterlimit="1" stroke-width="1" points="1874.4046020507812,792.656494140625 1902.2162475585938,1022.9947509765625 1991.5099487304688,896.4122009277344" style="fill:#791d00;stroke:#791d00;"></polygon><polygon stroke-linejoin="round" stroke-miterlimit="1" stroke-width="1" points="2118.486572265625,724.8596496582031 1874.4046020507812,792.656494140625 1991.5099487304688,896.4122009277344" style="fill:#781d00;stroke:#781d00;"></polygon><polygon stroke-linejoin="round" stroke-miterlimit="1" stroke-width="1" points="1815.5017700195312,767.4859619140625 1874.4046020507812,792.656494140625 2118.486572265625,724.8596496582031" style="fill:#7a1d00;stroke:#7a1d00;"></polygon><polygon stroke-linejoin="round" stroke-miterlimit="1" stroke-width="1" points="1976.9525146484375,652.0824890136719 1815.5017700195312,767.4859619140625 2118.486572265625,724.8596496582031" style="fill:#7a1d00;stroke:#7a1d00;"></polygon><polygon stroke-linejoin="round" stroke-miterlimit="1" stroke-width="1" points="1810.931396484375,588.223030090332 1815.5017700195312,767.4859619140625 1976.9525146484375,652.0824890136719" style="fill:#7c1e00;stroke:#7c1e00;"></polygon><polygon stroke-linejoin="round" stroke-miterlimit="1" stroke-width="1" points="1991.8485717773438,546.1064109802246 1810.931396484375,588.223030090332 1976.9525146484375,652.0824890136719" style="fill:#7c1e00;stroke:#7c1e00;"></polygon><polygon stroke-linejoin="round" stroke-miterlimit="1" stroke-width="1" points="1925.1434936523438,452.2985649108887 1810.931396484375,588.223030090332 1991.8485717773438,546.1064109802246" style="fill:#7c1e00;stroke:#7c1e00;"></polygon><polygon stroke-linejoin="round" stroke-miterlimit="1" stroke-width="1" points="1988.4044799804688,339.0929260253906 1925.1434936523438,452.2985649108887 1991.8485717773438,546.1064109802246" style="fill:#7b1e00;stroke:#7b1e00;"></polygon><polygon stroke-linejoin="round" stroke-miterlimit="1" stroke-width="1" points="1811.6859130859375,412.7271423339844 1925.1434936523438,452.2985649108887 1988.4044799804688,339.0929260253906" style="fill:#7d1f00;stroke:#7d1f00;"></polygon><polygon stroke-linejoin="round" stroke-miterlimit="1" stroke-width="1" points="2111.669921875,291.3015441894531 1811.6859130859375,412.7271423339844 1988.4044799804688,339.0929260253906" style="fill:#470900;stroke:#470900;"></polygon><polygon stroke-linejoin="round" stroke-miterlimit="1" stroke-width="1" points="1885.2537841796875,208.48037719726562 1811.6859130859375,412.7271423339844 2111.669921875,291.3015441894531" style="fill:#7d1e00;stroke:#7d1e00;"></polygon><polygon stroke-linejoin="round" stroke-miterlimit="1" stroke-width="1" points="2118.0609130859375,138.8729248046875 1885.2537841796875,208.48037719726562 2111.669921875,291.3015441894531" style="fill:#7b1e00;stroke:#7b1e00;"></polygon><polygon stroke-linejoin="round" stroke-miterlimit="1" stroke-width="1" points="1882.275634765625,207.46380615234375 1885.2537841796875,208.48037719726562 2118.0609130859375,138.8729248046875" style="fill:#7d1e00;stroke:#7d1e00;"></polygon><polygon stroke-linejoin="round" stroke-miterlimit="1" stroke-width="1" points="2042.791015625,90.6199951171875 1882.275634765625,207.46380615234375 2118.0609130859375,138.8729248046875" style="fill:#7b1e00;stroke:#7b1e00;"></polygon><polygon stroke-linejoin="round" stroke-miterlimit="1" stroke-width="1" points="1804.7201538085938,14.22247314453125 1882.275634765625,207.46380615234375 2042.791015625,90.6199951171875" style="fill:#7e1f00;stroke:#7e1f00;"></polygon><polygon stroke-linejoin="round" stroke-miterlimit="1" stroke-width="1" points="1966.5693359375,-106.22802734375 1804.7201538085938,14.22247314453125 2042.791015625,90.6199951171875" style="fill:#7d1f00;stroke:#7d1f00;"></polygon><polygon stroke-linejoin="round" stroke-miterlimit="1" stroke-width="1" points="1801.7794799804688,-94.1458740234375 1804.7201538085938,14.22247314453125 1966.5693359375,-106.22802734375" style="fill:#802000;stroke:#802000;"></polygon><polygon stroke-linejoin="round" stroke-miterlimit="1" stroke-width="1" points="1902.2162475585938,1022.9947509765625 1643.0455932617188,1098.4590454101562 1859.387939453125,1028.1634521484375" style="fill:#470900;stroke:#470900;"></polygon><polygon stroke-linejoin="round" stroke-miterlimit="1" stroke-width="1" points="1728.627685546875,1024.967041015625 1643.0455932617188,1098.4590454101562 1902.2162475585938,1022.9947509765625" style="fill:#7b1e00;stroke:#7b1e00;"></polygon><polygon stroke-linejoin="round" stroke-miterlimit="1" stroke-width="1" points="1874.4046020507812,792.656494140625 1728.627685546875,1024.967041015625 1902.2162475585938,1022.9947509765625" style="fill:#7a1d00;stroke:#7a1d00;"></polygon><polygon stroke-linejoin="round" stroke-miterlimit="1" stroke-width="1" points="1677.0499267578125,801.7260437011719 1728.627685546875,1024.967041015625 1874.4046020507812,792.656494140625" style="fill:#7d1e00;stroke:#7d1e00;"></polygon><polygon stroke-linejoin="round" stroke-miterlimit="1" stroke-width="1" points="1815.5017700195312,767.4859619140625 1677.0499267578125,801.7260437011719 1874.4046020507812,792.656494140625" style="fill:#7d1f00;stroke:#7d1f00;"></polygon><polygon stroke-linejoin="round" stroke-miterlimit="1" stroke-width="1" points="1736.0462036132812,676.8767700195312 1677.0499267578125,801.7260437011719 1815.5017700195312,767.4859619140625" style="fill:#7f1f00;stroke:#7f1f00;"></polygon><polygon stroke-linejoin="round" stroke-miterlimit="1" stroke-width="1" points="1810.931396484375,588.223030090332 1736.0462036132812,676.8767700195312 1815.5017700195312,767.4859619140625" style="fill:#7e1f00;stroke:#7e1f00;"></polygon><polygon stroke-linejoin="round" stroke-miterlimit="1" stroke-width="1" points="1651.1238403320312,587.976676940918 1736.0462036132812,676.8767700195312 1810.931396484375,588.223030090332" style="fill:#802000;stroke:#802000;"></polygon><polygon stroke-linejoin="round" stroke-miterlimit="1" stroke-width="1" points="1925.1434936523438,452.2985649108887 1651.1238403320312,587.976676940918 1810.931396484375,588.223030090332" style="fill:#7f1f00;stroke:#7f1f00;"></polygon><polygon stroke-linejoin="round" stroke-miterlimit="1" stroke-width="1" points="1680.4422607421875,550.2761459350586 1651.1238403320312,587.976676940918 1925.1434936523438,452.2985649108887" style="fill:#812000;stroke:#812000;"></polygon><polygon stroke-linejoin="round" stroke-miterlimit="1" stroke-width="1" points="1811.6859130859375,412.7271423339844 1680.4422607421875,550.2761459350586 1925.1434936523438,452.2985649108887" style="fill:#802000;stroke:#802000;"></polygon><polygon stroke-linejoin="round" stroke-miterlimit="1" stroke-width="1" points="1657.947265625,346.9886016845703 1680.4422607421875,550.2761459350586 1811.6859130859375,412.7271423339844" style="fill:#822100;stroke:#822100;"></polygon><polygon stroke-linejoin="round" stroke-miterlimit="1" stroke-width="1" points="1885.2537841796875,208.48037719726562 1657.947265625,346.9886016845703 1811.6859130859375,412.7271423339844" style="fill:#812000;stroke:#812000;"></polygon><polygon stroke-linejoin="round" stroke-miterlimit="1" stroke-width="1" points="1679.5559692382812,316.235107421875 1657.947265625,346.9886016845703 1885.2537841796875,208.48037719726562" style="fill:#832100;stroke:#832100;"></polygon><polygon stroke-linejoin="round" stroke-miterlimit="1" stroke-width="1" points="1882.275634765625,207.46380615234375 1679.5559692382812,316.235107421875 1885.2537841796875,208.48037719726562" style="fill:#812000;stroke:#812000;"></polygon><polygon stroke-linejoin="round" stroke-miterlimit="1" stroke-width="1" points="1759.0816040039062,199.9788818359375 1679.5559692382812,316.235107421875 1882.275634765625,207.46380615234375" style="fill:#822000;stroke:#822000;"></polygon><polygon stroke-linejoin="round" stroke-miterlimit="1" stroke-width="1" points="1804.7201538085938,14.22247314453125 1759.0816040039062,199.9788818359375 1882.275634765625,207.46380615234375" style="fill:#812000;stroke:#812000;"></polygon><polygon stroke-linejoin="round" stroke-miterlimit="1" stroke-width="1" points="1793.12353515625,55.278839111328125 1759.0816040039062,199.9788818359375 1804.7201538085938,14.22247314453125" style="fill:#822000;stroke:#822000;"></polygon><polygon stroke-linejoin="round" stroke-miterlimit="1" stroke-width="1" points="1801.7794799804688,-94.1458740234375 1793.12353515625,55.278839111328125 1804.7201538085938,14.22247314453125" style="fill:#812000;stroke:#812000;"></polygon><polygon stroke-linejoin="round" stroke-miterlimit="1" stroke-width="1" points="1778.7777709960938,-123.1456298828125 1793.12353515625,55.278839111328125 1801.7794799804688,-94.1458740234375" style="fill:#822000;stroke:#822000;"></polygon><polygon stroke-linejoin="round" stroke-miterlimit="1" stroke-width="1" points="1728.627685546875,1024.967041015625 1499.0867004394531,1046.9613647460938 1643.0455932617188,1098.4590454101562" style="fill:#7e1f00;stroke:#7e1f00;"></polygon><polygon stroke-linejoin="round" stroke-miterlimit="1" stroke-width="1" points="1508.8619079589844,1011.6858520507812 1499.0867004394531,1046.9613647460938 1728.627685546875,1024.967041015625" style="fill:#7f1f00;stroke:#7f1f00;"></polygon><polygon stroke-linejoin="round" stroke-miterlimit="1" stroke-width="1" points="1677.0499267578125,801.7260437011719 1508.8619079589844,1011.6858520507812 1728.627685546875,1024.967041015625" style="fill:#7f1f00;stroke:#7f1f00;"></polygon><polygon stroke-linejoin="round" stroke-miterlimit="1" stroke-width="1" points="1638.980224609375,844.4904479980469 1508.8619079589844,1011.6858520507812 1677.0499267578125,801.7260437011719" style="fill:#812000;stroke:#812000;"></polygon><polygon stroke-linejoin="round" stroke-miterlimit="1" stroke-width="1" points="1736.0462036132812,676.8767700195312 1638.980224609375,844.4904479980469 1677.0499267578125,801.7260437011719" style="fill:#802000;stroke:#802000;"></polygon><polygon stroke-linejoin="round" stroke-miterlimit="1" stroke-width="1" points="1620.185546875,695.8395690917969 1638.980224609375,844.4904479980469 1736.0462036132812,676.8767700195312" style="fill:#812000;stroke:#812000;"></polygon><polygon stroke-linejoin="round" stroke-miterlimit="1" stroke-width="1" points="1651.1238403320312,587.976676940918 1620.185546875,695.8395690917969 1736.0462036132812,676.8767700195312" style="fill:#822000;stroke:#822000;"></polygon><polygon stroke-linejoin="round" stroke-miterlimit="1" stroke-width="1" points="1492.3204956054688,647.1591339111328 1620.185546875,695.8395690917969 1651.1238403320312,587.976676940918" style="fill:#842100;stroke:#842100;"></polygon><polygon stroke-linejoin="round" stroke-miterlimit="1" stroke-width="1" points="1680.4422607421875,550.2761459350586 1492.3204956054688,647.1591339111328 1651.1238403320312,587.976676940918" style="fill:#842100;stroke:#842100;"></polygon><polygon stroke-linejoin="round" stroke-miterlimit="1" stroke-width="1" points="1636.1500854492188,483.56376457214355 1492.3204956054688,647.1591339111328 1680.4422607421875,550.2761459350586" style="fill:#852200;stroke:#852200;"></polygon><polygon stroke-linejoin="round" stroke-miterlimit="1" stroke-width="1" points="1657.947265625,346.9886016845703 1636.1500854492188,483.56376457214355 1680.4422607421875,550.2761459350586" style="fill:#842100;stroke:#842100;"></polygon><polygon stroke-linejoin="round" stroke-miterlimit="1" stroke-width="1" points="1547.8954467773438,325.86277770996094 1636.1500854492188,483.56376457214355 1657.947265625,346.9886016845703" style="fill:#862200;stroke:#862200;"></polygon><polygon stroke-linejoin="round" stroke-miterlimit="1" stroke-width="1" points="1679.5559692382812,316.235107421875 1547.8954467773438,325.86277770996094 1657.947265625,346.9886016845703" style="fill:#862200;stroke:#862200;"></polygon><polygon stroke-linejoin="round" stroke-miterlimit="1" stroke-width="1" points="1518.8159790039062,216.76141357421875 1547.8954467773438,325.86277770996094 1679.5559692382812,316.235107421875" style="fill:#882300;stroke:#882300;"></polygon><polygon stroke-linejoin="round" stroke-miterlimit="1" stroke-width="1" points="1759.0816040039062,199.9788818359375 1518.8159790039062,216.76141357421875 1679.5559692382812,316.235107421875" style="fill:#862200;stroke:#862200;"></polygon><polygon stroke-linejoin="round" stroke-miterlimit="1" stroke-width="1" points="1527.4112548828125,96.6295166015625 1518.8159790039062,216.76141357421875 1759.0816040039062,199.9788818359375" style="fill:#882300;stroke:#882300;"></polygon><polygon stroke-linejoin="round" stroke-miterlimit="1" stroke-width="1" points="1793.12353515625,55.278839111328125 1527.4112548828125,96.6295166015625 1759.0816040039062,199.9788818359375" style="fill:#852200;stroke:#852200;"></polygon><polygon stroke-linejoin="round" stroke-miterlimit="1" stroke-width="1" points="1636.8980102539062,18.21185302734375 1527.4112548828125,96.6295166015625 1793.12353515625,55.278839111328125" style="fill:#862200;stroke:#862200;"></polygon><polygon stroke-linejoin="round" stroke-miterlimit="1" stroke-width="1" points="1778.7777709960938,-123.1456298828125 1636.8980102539062,18.21185302734375 1793.12353515625,55.278839111328125" style="fill:#832100;stroke:#832100;"></polygon><polygon stroke-linejoin="round" stroke-miterlimit="1" stroke-width="1" points="1500.7447204589844,-122.75830078125 1636.8980102539062,18.21185302734375 1778.7777709960938,-123.1456298828125" style="fill:#872200;stroke:#872200;"></polygon><polygon stroke-linejoin="round" stroke-miterlimit="1" stroke-width="1" points="1508.8619079589844,1011.6858520507812 1479.3784484863281,1082.5986328125 1499.0867004394531,1046.9613647460938" style="fill:#812000;stroke:#812000;"></polygon><polygon stroke-linejoin="round" stroke-miterlimit="1" stroke-width="1" points="1320.880615234375,962.394775390625 1479.3784484863281,1082.5986328125 1508.8619079589844,1011.6858520507812" style="fill:#832100;stroke:#832100;"></polygon><polygon stroke-linejoin="round" stroke-miterlimit="1" stroke-width="1" points="1638.980224609375,844.4904479980469 1320.880615234375,962.394775390625 1508.8619079589844,1011.6858520507812" style="fill:#832100;stroke:#832100;"></polygon><polygon stroke-linejoin="round" stroke-miterlimit="1" stroke-width="1" points="1426.7393798828125,905.0921630859375 1320.880615234375,962.394775390625 1638.980224609375,844.4904479980469" style="fill:#842100;stroke:#842100;"></polygon><polygon stroke-linejoin="round" stroke-miterlimit="1" stroke-width="1" points="1620.185546875,695.8395690917969 1426.7393798828125,905.0921630859375 1638.980224609375,844.4904479980469" style="fill:#832100;stroke:#832100;"></polygon><polygon stroke-linejoin="round" stroke-miterlimit="1" stroke-width="1" points="1358.6434326171875,684.1652984619141 1426.7393798828125,905.0921630859375 1620.185546875,695.8395690917969" style="fill:#862200;stroke:#862200;"></polygon><polygon stroke-linejoin="round" stroke-miterlimit="1" stroke-width="1" points="1492.3204956054688,647.1591339111328 1358.6434326171875,684.1652984619141 1620.185546875,695.8395690917969" style="fill:#872300;stroke:#872300;"></polygon><polygon stroke-linejoin="round" stroke-miterlimit="1" stroke-width="1" points="1474.2043762207031,596.1888275146484 1358.6434326171875,684.1652984619141 1492.3204956054688,647.1591339111328" style="fill:#892300;stroke:#892300;"></polygon><polygon stroke-linejoin="round" stroke-miterlimit="1" stroke-width="1" points="1636.1500854492188,483.56376457214355 1474.2043762207031,596.1888275146484 1492.3204956054688,647.1591339111328" style="fill:#872200;stroke:#872200;"></polygon><polygon stroke-linejoin="round" stroke-miterlimit="1" stroke-width="1" points="1432.3892211914062,447.0596160888672 1474.2043762207031,596.1888275146484 1636.1500854492188,483.56376457214355" style="fill:#892300;stroke:#892300;"></polygon><polygon stroke-linejoin="round" stroke-miterlimit="1" stroke-width="1" points="1547.8954467773438,325.86277770996094 1432.3892211914062,447.0596160888672 1636.1500854492188,483.56376457214355" style="fill:#892300;stroke:#892300;"></polygon><polygon stroke-linejoin="round" stroke-miterlimit="1" stroke-width="1" points="1320.9835815429688,388.9137191772461 1432.3892211914062,447.0596160888672 1547.8954467773438,325.86277770996094" style="fill:#8d2500;stroke:#8d2500;"></polygon><polygon stroke-linejoin="round" stroke-miterlimit="1" stroke-width="1" points="1518.8159790039062,216.76141357421875 1320.9835815429688,388.9137191772461 1547.8954467773438,325.86277770996094" style="fill:#8d2500;stroke:#8d2500;"></polygon><polygon stroke-linejoin="round" stroke-miterlimit="1" stroke-width="1" points="1398.8290405273438,324.31312561035156 1320.9835815429688,388.9137191772461 1518.8159790039062,216.76141357421875" style="fill:#470900;stroke:#470900;"></polygon><polygon stroke-linejoin="round" stroke-miterlimit="1" stroke-width="1" points="1527.4112548828125,96.6295166015625 1398.8290405273438,324.31312561035156 1518.8159790039062,216.76141357421875" style="fill:#8d2500;stroke:#8d2500;"></polygon><polygon stroke-linejoin="round" stroke-miterlimit="1" stroke-width="1" points="1376.2642822265625,94.17245483398438 1398.8290405273438,324.31312561035156 1527.4112548828125,96.6295166015625" style="fill:#8f2600;stroke:#8f2600;"></polygon><polygon stroke-linejoin="round" stroke-miterlimit="1" stroke-width="1" points="1636.8980102539062,18.21185302734375 1376.2642822265625,94.17245483398438 1527.4112548828125,96.6295166015625" style="fill:#8c2400;stroke:#8c2400;"></polygon><polygon stroke-linejoin="round" stroke-miterlimit="1" stroke-width="1" points="1439.24951171875,-17.73199462890625 1376.2642822265625,94.17245483398438 1636.8980102539062,18.21185302734375" style="fill:#8d2500;stroke:#8d2500;"></polygon><polygon stroke-linejoin="round" stroke-miterlimit="1" stroke-width="1" points="1500.7447204589844,-122.75830078125 1439.24951171875,-17.73199462890625 1636.8980102539062,18.21185302734375" style="fill:#8b2400;stroke:#8b2400;"></polygon><polygon stroke-linejoin="round" stroke-miterlimit="1" stroke-width="1" points="1333.0458068847656,-115.33294677734375 1439.24951171875,-17.73199462890625 1500.7447204589844,-122.75830078125" style="fill:#902600;stroke:#902600;"></polygon><polygon stroke-linejoin="round" stroke-miterlimit="1" stroke-width="1" points="1320.880615234375,962.394775390625 1167.1228942871094,1061.1325073242188 1479.3784484863281,1082.5986328125" style="fill:#862200;stroke:#862200;"></polygon><polygon stroke-linejoin="round" stroke-miterlimit="1" stroke-width="1" points="1182.5404357910156,927.3066101074219 1167.1228942871094,1061.1325073242188 1320.880615234375,962.394775390625" style="fill:#8a2400;stroke:#8a2400;"></polygon><polygon stroke-linejoin="round" stroke-miterlimit="1" stroke-width="1" points="1426.7393798828125,905.0921630859375 1182.5404357910156,927.3066101074219 1320.880615234375,962.394775390625" style="fill:#882300;stroke:#882300;"></polygon><polygon stroke-linejoin="round" stroke-miterlimit="1" stroke-width="1" points="1168.9739074707031,824.5677185058594 1182.5404357910156,927.3066101074219 1426.7393798828125,905.0921630859375" style="fill:#8b2400;stroke:#8b2400;"></polygon><polygon stroke-linejoin="round" stroke-miterlimit="1" stroke-width="1" points="1358.6434326171875,684.1652984619141 1168.9739074707031,824.5677185058594 1426.7393798828125,905.0921630859375" style="fill:#8b2400;stroke:#8b2400;"></polygon><polygon stroke-linejoin="round" stroke-miterlimit="1" stroke-width="1" points="1161.4954528808594,742.3814544677734 1168.9739074707031,824.5677185058594 1358.6434326171875,684.1652984619141" style="fill:#8f2600;stroke:#8f2600;"></polygon><polygon stroke-linejoin="round" stroke-miterlimit="1" stroke-width="1" points="1474.2043762207031,596.1888275146484 1161.4954528808594,742.3814544677734 1358.6434326171875,684.1652984619141" style="fill:#8d2500;stroke:#8d2500;"></polygon><polygon stroke-linejoin="round" stroke-miterlimit="1" stroke-width="1" points="1160.634033203125,614.9635314941406 1161.4954528808594,742.3814544677734 1474.2043762207031,596.1888275146484" style="fill:#902600;stroke:#902600;"></polygon><polygon stroke-linejoin="round" stroke-miterlimit="1" stroke-width="1" points="1432.3892211914062,447.0596160888672 1160.634033203125,614.9635314941406 1474.2043762207031,596.1888275146484" style="fill:#8e2500;stroke:#8e2500;"></polygon><polygon stroke-linejoin="round" stroke-miterlimit="1" stroke-width="1" points="1318.573486328125,491.6199245452881 1160.634033203125,614.9635314941406 1432.3892211914062,447.0596160888672" style="fill:#912600;stroke:#912600;"></polygon><polygon stroke-linejoin="round" stroke-miterlimit="1" stroke-width="1" points="1320.9835815429688,388.9137191772461 1318.573486328125,491.6199245452881 1432.3892211914062,447.0596160888672" style="fill:#902600;stroke:#902600;"></polygon><polygon stroke-linejoin="round" stroke-miterlimit="1" stroke-width="1" points="1167.9978637695312,407.6183547973633 1318.573486328125,491.6199245452881 1320.9835815429688,388.9137191772461" style="fill:#942800;stroke:#942800;"></polygon><polygon stroke-linejoin="round" stroke-miterlimit="1" stroke-width="1" points="1398.8290405273438,324.31312561035156 1167.9978637695312,407.6183547973633 1320.9835815429688,388.9137191772461" style="fill:#942800;stroke:#942800;"></polygon><polygon stroke-linejoin="round" stroke-miterlimit="1" stroke-width="1" points="1189.0025329589844,310.7812194824219 1167.9978637695312,407.6183547973633 1398.8290405273438,324.31312561035156" style="fill:#962900;stroke:#962900;"></polygon><polygon stroke-linejoin="round" stroke-miterlimit="1" stroke-width="1" points="1376.2642822265625,94.17245483398438 1189.0025329589844,310.7812194824219 1398.8290405273438,324.31312561035156" style="fill:#942800;stroke:#942800;"></polygon><polygon stroke-linejoin="round" stroke-miterlimit="1" stroke-width="1" points="1177.5707702636719,185.33712768554688 1189.0025329589844,310.7812194824219 1376.2642822265625,94.17245483398438" style="fill:#982900;stroke:#982900;"></polygon><polygon stroke-linejoin="round" stroke-miterlimit="1" stroke-width="1" points="1439.24951171875,-17.73199462890625 1177.5707702636719,185.33712768554688 1376.2642822265625,94.17245483398438" style="fill:#942800;stroke:#942800;"></polygon><polygon stroke-linejoin="round" stroke-miterlimit="1" stroke-width="1" points="1215.8135375976562,87.90069580078125 1177.5707702636719,185.33712768554688 1439.24951171875,-17.73199462890625" style="fill:#972900;stroke:#972900;"></polygon><polygon stroke-linejoin="round" stroke-miterlimit="1" stroke-width="1" points="1333.0458068847656,-115.33294677734375 1215.8135375976562,87.90069580078125 1439.24951171875,-17.73199462890625" style="fill:#942800;stroke:#942800;"></polygon><polygon stroke-linejoin="round" stroke-miterlimit="1" stroke-width="1" points="1271.8532104492188,-31.0455322265625 1215.8135375976562,87.90069580078125 1333.0458068847656,-115.33294677734375" style="fill:#972900;stroke:#972900;"></polygon><polygon stroke-linejoin="round" stroke-miterlimit="1" stroke-width="1" points="1182.5404357910156,927.3066101074219 1050.583366394043,1138.0166625976562 1167.1228942871094,1061.1325073242188" style="fill:#8b2400;stroke:#8b2400;"></polygon><polygon stroke-linejoin="round" stroke-miterlimit="1" stroke-width="1" points="1150.6655731201172,993.7749633789062 1050.583366394043,1138.0166625976562 1182.5404357910156,927.3066101074219" style="fill:#470900;stroke:#470900;"></polygon><polygon stroke-linejoin="round" stroke-miterlimit="1" stroke-width="1" points="1168.9739074707031,824.5677185058594 1150.6655731201172,993.7749633789062 1182.5404357910156,927.3066101074219" style="fill:#8d2500;stroke:#8d2500;"></polygon><polygon stroke-linejoin="round" stroke-miterlimit="1" stroke-width="1" points="1004.8247756958008,869.1718139648438 1150.6655731201172,993.7749633789062 1168.9739074707031,824.5677185058594" style="fill:#902600;stroke:#902600;"></polygon><polygon stroke-linejoin="round" stroke-miterlimit="1" stroke-width="1" points="1161.4954528808594,742.3814544677734 1004.8247756958008,869.1718139648438 1168.9739074707031,824.5677185058594" style="fill:#922700;stroke:#922700;"></polygon><polygon stroke-linejoin="round" stroke-miterlimit="1" stroke-width="1" points="1005.971321105957,712.6869659423828 1004.8247756958008,869.1718139648438 1161.4954528808594,742.3814544677734" style="fill:#962800;stroke:#962800;"></polygon><polygon stroke-linejoin="round" stroke-miterlimit="1" stroke-width="1" points="1160.634033203125,614.9635314941406 1005.971321105957,712.6869659423828 1161.4954528808594,742.3814544677734" style="fill:#962800;stroke:#962800;"></polygon><polygon stroke-linejoin="round" stroke-miterlimit="1" stroke-width="1" points="1140.4171447753906,579.2051467895508 1005.971321105957,712.6869659423828 1160.634033203125,614.9635314941406" style="fill:#982900;stroke:#982900;"></polygon><polygon stroke-linejoin="round" stroke-miterlimit="1" stroke-width="1" points="1318.573486328125,491.6199245452881 1140.4171447753906,579.2051467895508 1160.634033203125,614.9635314941406" style="fill:#952800;stroke:#952800;"></polygon><polygon stroke-linejoin="round" stroke-miterlimit="1" stroke-width="1" points="1159.4002685546875,499.2339231967926 1140.4171447753906,579.2051467895508 1318.573486328125,491.6199245452881" style="fill:#952800;stroke:#952800;"></polygon><polygon stroke-linejoin="round" stroke-miterlimit="1" stroke-width="1" points="1167.9978637695312,407.6183547973633 1159.4002685546875,499.2339231967926 1318.573486328125,491.6199245452881" style="fill:#962900;stroke:#962900;"></polygon><polygon stroke-linejoin="round" stroke-miterlimit="1" stroke-width="1" points="1102.1618881225586,327.4891357421875 1159.4002685546875,499.2339231967926 1167.9978637695312,407.6183547973633" style="fill:#9b2b00;stroke:#9b2b00;"></polygon><polygon stroke-linejoin="round" stroke-miterlimit="1" stroke-width="1" points="1189.0025329589844,310.7812194824219 1102.1618881225586,327.4891357421875 1167.9978637695312,407.6183547973633" style="fill:#9c2b00;stroke:#9c2b00;"></polygon><polygon stroke-linejoin="round" stroke-miterlimit="1" stroke-width="1" points="1156.4850616455078,250.75149536132812 1102.1618881225586,327.4891357421875 1189.0025329589844,310.7812194824219" style="fill:#9d2b00;stroke:#9d2b00;"></polygon><polygon stroke-linejoin="round" stroke-miterlimit="1" stroke-width="1" points="1177.5707702636719,185.33712768554688 1156.4850616455078,250.75149536132812 1189.0025329589844,310.7812194824219" style="fill:#9c2b00;stroke:#9c2b00;"></polygon><polygon stroke-linejoin="round" stroke-miterlimit="1" stroke-width="1" points="1150.1525268554688,176.6707763671875 1156.4850616455078,250.75149536132812 1177.5707702636719,185.33712768554688" style="fill:#9d2b00;stroke:#9d2b00;"></polygon><polygon stroke-linejoin="round" stroke-miterlimit="1" stroke-width="1" points="1215.8135375976562,87.90069580078125 1150.1525268554688,176.6707763671875 1177.5707702636719,185.33712768554688" style="fill:#9d2b00;stroke:#9d2b00;"></polygon><polygon stroke-linejoin="round" stroke-miterlimit="1" stroke-width="1" points="1158.4763641357422,41.524871826171875 1150.1525268554688,176.6707763671875 1215.8135375976562,87.90069580078125" style="fill:#9d2b00;stroke:#9d2b00;"></polygon><polygon stroke-linejoin="round" stroke-miterlimit="1" stroke-width="1" points="1271.8532104492188,-31.0455322265625 1158.4763641357422,41.524871826171875 1215.8135375976562,87.90069580078125" style="fill:#9b2a00;stroke:#9b2a00;"></polygon><polygon stroke-linejoin="round" stroke-miterlimit="1" stroke-width="1" points="1143.397964477539,-119.072998046875 1158.4763641357422,41.524871826171875 1271.8532104492188,-31.0455322265625" style="fill:#9c2b00;stroke:#9c2b00;"></polygon><polygon stroke-linejoin="round" stroke-miterlimit="1" stroke-width="1" points="1150.6655731201172,993.7749633789062 980.0688705444336,1046.2362670898438 1050.583366394043,1138.0166625976562" style="fill:#8d2500;stroke:#8d2500;"></polygon><polygon stroke-linejoin="round" stroke-miterlimit="1" stroke-width="1" points="917.9543685913086,909.3634338378906 980.0688705444336,1046.2362670898438 1150.6655731201172,993.7749633789062" style="fill:#912600;stroke:#912600;"></polygon><polygon stroke-linejoin="round" stroke-miterlimit="1" stroke-width="1" points="1004.8247756958008,869.1718139648438 917.9543685913086,909.3634338378906 1150.6655731201172,993.7749633789062" style="fill:#922700;stroke:#922700;"></polygon><polygon stroke-linejoin="round" stroke-miterlimit="1" stroke-width="1" points="961.6115455627441,801.1111755371094 917.9543685913086,909.3634338378906 1004.8247756958008,869.1718139648438" style="fill:#972900;stroke:#972900;"></polygon><polygon stroke-linejoin="round" stroke-miterlimit="1" stroke-width="1" points="1005.971321105957,712.6869659423828 961.6115455627441,801.1111755371094 1004.8247756958008,869.1718139648438" style="fill:#982900;stroke:#982900;"></polygon><polygon stroke-linejoin="round" stroke-miterlimit="1" stroke-width="1" points="842.7260437011719,720.3139801025391 961.6115455627441,801.1111755371094 1005.971321105957,712.6869659423828" style="fill:#9d2b00;stroke:#9d2b00;"></polygon><polygon stroke-linejoin="round" stroke-miterlimit="1" stroke-width="1" points="1140.4171447753906,579.2051467895508 842.7260437011719,720.3139801025391 1005.971321105957,712.6869659423828" style="fill:#9c2b00;stroke:#9c2b00;"></polygon><polygon stroke-linejoin="round" stroke-miterlimit="1" stroke-width="1" points="955.3376960754395,564.9067611694336 842.7260437011719,720.3139801025391 1140.4171447753906,579.2051467895508" style="fill:#9f2c00;stroke:#9f2c00;"></polygon><polygon stroke-linejoin="round" stroke-miterlimit="1" stroke-width="1" points="1159.4002685546875,499.2339231967926 955.3376960754395,564.9067611694336 1140.4171447753906,579.2051467895508" style="fill:#9b2b00;stroke:#9b2b00;"></polygon><polygon stroke-linejoin="round" stroke-miterlimit="1" stroke-width="1" points="868.0225677490234,456.16464614868164 955.3376960754395,564.9067611694336 1159.4002685546875,499.2339231967926" style="fill:#a22d00;stroke:#a22d00;"></polygon><polygon stroke-linejoin="round" stroke-miterlimit="1" stroke-width="1" points="1102.1618881225586,327.4891357421875 868.0225677490234,456.16464614868164 1159.4002685546875,499.2339231967926" style="fill:#a12d00;stroke:#a12d00;"></polygon><polygon stroke-linejoin="round" stroke-miterlimit="1" stroke-width="1" points="956.0163764953613,331.49237060546875 868.0225677490234,456.16464614868164 1102.1618881225586,327.4891357421875" style="fill:#a72f00;stroke:#a72f00;"></polygon><polygon stroke-linejoin="round" stroke-miterlimit="1" stroke-width="1" points="1156.4850616455078,250.75149536132812 956.0163764953613,331.49237060546875 1102.1618881225586,327.4891357421875" style="fill:#a22d00;stroke:#a22d00;"></polygon><polygon stroke-linejoin="round" stroke-miterlimit="1" stroke-width="1" points="959.4708442687988,216.02383422851562 956.0163764953613,331.49237060546875 1156.4850616455078,250.75149536132812" style="fill:#a62f00;stroke:#a62f00;"></polygon><polygon stroke-linejoin="round" stroke-miterlimit="1" stroke-width="1" points="1150.1525268554688,176.6707763671875 959.4708442687988,216.02383422851562 1156.4850616455078,250.75149536132812" style="fill:#a22d00;stroke:#a22d00;"></polygon><polygon stroke-linejoin="round" stroke-miterlimit="1" stroke-width="1" points="996.2582321166992,133.337890625 959.4708442687988,216.02383422851562 1150.1525268554688,176.6707763671875" style="fill:#a72f00;stroke:#a72f00;"></polygon><polygon stroke-linejoin="round" stroke-miterlimit="1" stroke-width="1" points="1158.4763641357422,41.524871826171875 996.2582321166992,133.337890625 1150.1525268554688,176.6707763671875" style="fill:#a22d00;stroke:#a22d00;"></polygon><polygon stroke-linejoin="round" stroke-miterlimit="1" stroke-width="1" points="944.385139465332,87.85409545898438 996.2582321166992,133.337890625 1158.4763641357422,41.524871826171875" style="fill:#a72f00;stroke:#a72f00;"></polygon><polygon stroke-linejoin="round" stroke-miterlimit="1" stroke-width="1" points="1143.397964477539,-119.072998046875 944.385139465332,87.85409545898438 1158.4763641357422,41.524871826171875" style="fill:#a42e00;stroke:#a42e00;"></polygon><polygon stroke-linejoin="round" stroke-miterlimit="1" stroke-width="1" points="849.2672424316406,-110.5108642578125 944.385139465332,87.85409545898438 1143.397964477539,-119.072998046875" style="fill:#ac3100;stroke:#ac3100;"></polygon><polygon stroke-linejoin="round" stroke-miterlimit="1" stroke-width="1" points="917.9543685913086,909.3634338378906 792.7754516601562,1136.9725341796875 980.0688705444336,1046.2362670898438" style="fill:#932700;stroke:#932700;"></polygon><polygon stroke-linejoin="round" stroke-miterlimit="1" stroke-width="1" points="795.1094665527344,1019.3347778320312 792.7754516601562,1136.9725341796875 917.9543685913086,909.3634338378906" style="fill:#952800;stroke:#952800;"></polygon><polygon stroke-linejoin="round" stroke-miterlimit="1" stroke-width="1" points="961.6115455627441,801.1111755371094 795.1094665527344,1019.3347778320312 917.9543685913086,909.3634338378906" style="fill:#982900;stroke:#982900;"></polygon><polygon stroke-linejoin="round" stroke-miterlimit="1" stroke-width="1" points="688.3155517578125,875.4383850097656 795.1094665527344,1019.3347778320312 961.6115455627441,801.1111755371094" style="fill:#9c2b00;stroke:#9c2b00;"></polygon><polygon stroke-linejoin="round" stroke-miterlimit="1" stroke-width="1" points="842.7260437011719,720.3139801025391 688.3155517578125,875.4383850097656 961.6115455627441,801.1111755371094" style="fill:#9f2c00;stroke:#9f2c00;"></polygon><polygon stroke-linejoin="round" stroke-miterlimit="1" stroke-width="1" points="780.7430114746094,789.6333923339844 688.3155517578125,875.4383850097656 842.7260437011719,720.3139801025391" style="fill:#470900;stroke:#470900;"></polygon><polygon stroke-linejoin="round" stroke-miterlimit="1" stroke-width="1" points="955.3376960754395,564.9067611694336 780.7430114746094,789.6333923339844 842.7260437011719,720.3139801025391" style="fill:#a32e00;stroke:#a32e00;"></polygon><polygon stroke-linejoin="round" stroke-miterlimit="1" stroke-width="1" points="730.1914978027344,563.0891876220703 780.7430114746094,789.6333923339844 955.3376960754395,564.9067611694336" style="fill:#a83000;stroke:#a83000;"></polygon><polygon stroke-linejoin="round" stroke-miterlimit="1" stroke-width="1" points="868.0225677490234,456.16464614868164 730.1914978027344,563.0891876220703 955.3376960754395,564.9067611694336" style="fill:#ab3100;stroke:#ab3100;"></polygon><polygon stroke-linejoin="round" stroke-miterlimit="1" stroke-width="1" points="838.8821563720703,506.6568284034729 730.1914978027344,563.0891876220703 868.0225677490234,456.16464614868164" style="fill:#470900;stroke:#470900;"></polygon><polygon stroke-linejoin="round" stroke-miterlimit="1" stroke-width="1" points="956.0163764953613,331.49237060546875 838.8821563720703,506.6568284034729 868.0225677490234,456.16464614868164" style="fill:#470900;stroke:#470900;"></polygon><polygon stroke-linejoin="round" stroke-miterlimit="1" stroke-width="1" points="687.4600830078125,406.75557708740234 838.8821563720703,506.6568284034729 956.0163764953613,331.49237060546875" style="fill:#b13300;stroke:#b13300;"></polygon><polygon stroke-linejoin="round" stroke-miterlimit="1" stroke-width="1" points="959.4708442687988,216.02383422851562 687.4600830078125,406.75557708740234 956.0163764953613,331.49237060546875" style="fill:#b23400;stroke:#b23400;"></polygon><polygon stroke-linejoin="round" stroke-miterlimit="1" stroke-width="1" points="746.6162109375,209.182861328125 687.4600830078125,406.75557708740234 959.4708442687988,216.02383422851562" style="fill:#ba3700;stroke:#ba3700;"></polygon><polygon stroke-linejoin="round" stroke-miterlimit="1" stroke-width="1" points="996.2582321166992,133.337890625 746.6162109375,209.182861328125 959.4708442687988,216.02383422851562" style="fill:#b23400;stroke:#b23400;"></polygon><polygon stroke-linejoin="round" stroke-miterlimit="1" stroke-width="1" points="801.6086120605469,198.89013671875 746.6162109375,209.182861328125 996.2582321166992,133.337890625" style="fill:#470900;stroke:#470900;"></polygon><polygon stroke-linejoin="round" stroke-miterlimit="1" stroke-width="1" points="944.385139465332,87.85409545898438 801.6086120605469,198.89013671875 996.2582321166992,133.337890625" style="fill:#b13300;stroke:#b13300;"></polygon><polygon stroke-linejoin="round" stroke-miterlimit="1" stroke-width="1" points="692.9896545410156,1.563232421875 801.6086120605469,198.89013671875 944.385139465332,87.85409545898438" style="fill:#bc3800;stroke:#bc3800;"></polygon><polygon stroke-linejoin="round" stroke-miterlimit="1" stroke-width="1" points="849.2672424316406,-110.5108642578125 692.9896545410156,1.563232421875 944.385139465332,87.85409545898438" style="fill:#bb3700;stroke:#bb3700;"></polygon><polygon stroke-linejoin="round" stroke-miterlimit="1" stroke-width="1" points="783.7615356445312,-28.8328857421875 692.9896545410156,1.563232421875 849.2672424316406,-110.5108642578125" style="fill:#470900;stroke:#470900;"></polygon><polygon stroke-linejoin="round" stroke-miterlimit="1" stroke-width="1" points="795.1094665527344,1019.3347778320312 679.0548095703125,1078.7024536132812 792.7754516601562,1136.9725341796875" style="fill:#962800;stroke:#962800;"></polygon><polygon stroke-linejoin="round" stroke-miterlimit="1" stroke-width="1" points="669.880126953125,939.7892150878906 679.0548095703125,1078.7024536132812 795.1094665527344,1019.3347778320312" style="fill:#9a2a00;stroke:#9a2a00;"></polygon><polygon stroke-linejoin="round" stroke-miterlimit="1" stroke-width="1" points="688.3155517578125,875.4383850097656 669.880126953125,939.7892150878906 795.1094665527344,1019.3347778320312" style="fill:#9d2b00;stroke:#9d2b00;"></polygon><polygon stroke-linejoin="round" stroke-miterlimit="1" stroke-width="1" points="521.216796875,843.2406921386719 669.880126953125,939.7892150878906 688.3155517578125,875.4383850097656" style="fill:#a42e00;stroke:#a42e00;"></polygon><polygon stroke-linejoin="round" stroke-miterlimit="1" stroke-width="1" points="780.7430114746094,789.6333923339844 521.216796875,843.2406921386719 688.3155517578125,875.4383850097656" style="fill:#a62f00;stroke:#a62f00;"></polygon><polygon stroke-linejoin="round" stroke-miterlimit="1" stroke-width="1" points="561.0285339355469,784.1832885742188 521.216796875,843.2406921386719 780.7430114746094,789.6333923339844" style="fill:#aa3000;stroke:#aa3000;"></polygon><polygon stroke-linejoin="round" stroke-miterlimit="1" stroke-width="1" points="730.1914978027344,563.0891876220703 561.0285339355469,784.1832885742188 780.7430114746094,789.6333923339844" style="fill:#ac3100;stroke:#ac3100;"></polygon><polygon stroke-linejoin="round" stroke-miterlimit="1" stroke-width="1" points="590.9158325195312,674.4341888427734 561.0285339355469,784.1832885742188 730.1914978027344,563.0891876220703" style="fill:#b23400;stroke:#b23400;"></polygon><polygon stroke-linejoin="round" stroke-miterlimit="1" stroke-width="1" points="838.8821563720703,506.6568284034729 590.9158325195312,674.4341888427734 730.1914978027344,563.0891876220703" style="fill:#470900;stroke:#470900;"></polygon><polygon stroke-linejoin="round" stroke-miterlimit="1" stroke-width="1" points="612.3204956054688,442.7191276550293 590.9158325195312,674.4341888427734 838.8821563720703,506.6568284034729" style="fill:#b73600;stroke:#b73600;"></polygon><polygon stroke-linejoin="round" stroke-miterlimit="1" stroke-width="1" points="687.4600830078125,406.75557708740234 612.3204956054688,442.7191276550293 838.8821563720703,506.6568284034729" style="fill:#ba3700;stroke:#ba3700;"></polygon><polygon stroke-linejoin="round" stroke-miterlimit="1" stroke-width="1" points="534.8758239746094,349.99156188964844 612.3204956054688,442.7191276550293 687.4600830078125,406.75557708740234" style="fill:#c73c00;stroke:#c73c00;"></polygon><polygon stroke-linejoin="round" stroke-miterlimit="1" stroke-width="1" points="746.6162109375,209.182861328125 534.8758239746094,349.99156188964844 687.4600830078125,406.75557708740234" style="fill:#c73c00;stroke:#c73c00;"></polygon><polygon stroke-linejoin="round" stroke-miterlimit="1" stroke-width="1" points="609.3776245117188,323.9136657714844 534.8758239746094,349.99156188964844 746.6162109375,209.182861328125" style="fill:#470900;stroke:#470900;"></polygon><polygon stroke-linejoin="round" stroke-miterlimit="1" stroke-width="1" points="801.6086120605469,198.89013671875 609.3776245117188,323.9136657714844 746.6162109375,209.182861328125" style="fill:#470900;stroke:#470900;"></polygon><polygon stroke-linejoin="round" stroke-miterlimit="1" stroke-width="1" points="657.7132873535156,109.6790771484375 609.3776245117188,323.9136657714844 801.6086120605469,198.89013671875" style="fill:#c83d00;stroke:#c83d00;"></polygon><polygon stroke-linejoin="round" stroke-miterlimit="1" stroke-width="1" points="692.9896545410156,1.563232421875 657.7132873535156,109.6790771484375 801.6086120605469,198.89013671875" style="fill:#c83c00;stroke:#c83c00;"></polygon><polygon stroke-linejoin="round" stroke-miterlimit="1" stroke-width="1" points="665.8176879882812,65.1114501953125 657.7132873535156,109.6790771484375 692.9896545410156,1.563232421875" style="fill:#ce3f00;stroke:#ce3f00;"></polygon><polygon stroke-linejoin="round" stroke-miterlimit="1" stroke-width="1" points="783.7615356445312,-28.8328857421875 665.8176879882812,65.1114501953125 692.9896545410156,1.563232421875" style="fill:#470900;stroke:#470900;"></polygon><polygon stroke-linejoin="round" stroke-miterlimit="1" stroke-width="1" points="525.983642578125,-105.15887451171875 665.8176879882812,65.1114501953125 783.7615356445312,-28.8328857421875" style="fill:#d14000;stroke:#d14000;"></polygon><polygon stroke-linejoin="round" stroke-miterlimit="1" stroke-width="1" points="669.880126953125,939.7892150878906 406.18695068359375,1136.6226196289062 679.0548095703125,1078.7024536132812" style="fill:#9c2b00;stroke:#9c2b00;"></polygon><polygon stroke-linejoin="round" stroke-miterlimit="1" stroke-width="1" points="435.46990966796875,909.4386291503906 406.18695068359375,1136.6226196289062 669.880126953125,939.7892150878906" style="fill:#a22d00;stroke:#a22d00;"></polygon><polygon stroke-linejoin="round" stroke-miterlimit="1" stroke-width="1" points="521.216796875,843.2406921386719 435.46990966796875,909.4386291503906 669.880126953125,939.7892150878906" style="fill:#a72f00;stroke:#a72f00;"></polygon><polygon stroke-linejoin="round" stroke-miterlimit="1" stroke-width="1" points="496.4938049316406,809.7482604980469 435.46990966796875,909.4386291503906 521.216796875,843.2406921386719" style="fill:#ad3200;stroke:#ad3200;"></polygon><polygon stroke-linejoin="round" stroke-miterlimit="1" stroke-width="1" points="561.0285339355469,784.1832885742188 496.4938049316406,809.7482604980469 521.216796875,843.2406921386719" style="fill:#ae3200;stroke:#ae3200;"></polygon><polygon stroke-linejoin="round" stroke-miterlimit="1" stroke-width="1" points="505.6033935546875,700.9942626953125 496.4938049316406,809.7482604980469 561.0285339355469,784.1832885742188" style="fill:#b23400;stroke:#b23400;"></polygon><polygon stroke-linejoin="round" stroke-miterlimit="1" stroke-width="1" points="590.9158325195312,674.4341888427734 505.6033935546875,700.9942626953125 561.0285339355469,784.1832885742188" style="fill:#b43400;stroke:#b43400;"></polygon><polygon stroke-linejoin="round" stroke-miterlimit="1" stroke-width="1" points="499.1197814941406,578.1219329833984 505.6033935546875,700.9942626953125 590.9158325195312,674.4341888427734" style="fill:#bb3700;stroke:#bb3700;"></polygon><polygon stroke-linejoin="round" stroke-miterlimit="1" stroke-width="1" points="612.3204956054688,442.7191276550293 499.1197814941406,578.1219329833984 590.9158325195312,674.4341888427734" style="fill:#bf3900;stroke:#bf3900;"></polygon><polygon stroke-linejoin="round" stroke-miterlimit="1" stroke-width="1" points="366.45611572265625,478.1330146789551 499.1197814941406,578.1219329833984 612.3204956054688,442.7191276550293" style="fill:#cc3e00;stroke:#cc3e00;"></polygon><polygon stroke-linejoin="round" stroke-miterlimit="1" stroke-width="1" points="534.8758239746094,349.99156188964844 366.45611572265625,478.1330146789551 612.3204956054688,442.7191276550293" style="fill:#d24000;stroke:#d24000;"></polygon><polygon stroke-linejoin="round" stroke-miterlimit="1" stroke-width="1" points="507.12518310546875,352.1909484863281 366.45611572265625,478.1330146789551 534.8758239746094,349.99156188964844" style="fill:#d94300;stroke:#d94300;"></polygon><polygon stroke-linejoin="round" stroke-miterlimit="1" stroke-width="1" points="609.3776245117188,323.9136657714844 507.12518310546875,352.1909484863281 534.8758239746094,349.99156188964844" style="fill:#d34100;stroke:#d34100;"></polygon><polygon stroke-linejoin="round" stroke-miterlimit="1" stroke-width="1" points="459.58837890625,322.52752685546875 507.12518310546875,352.1909484863281 609.3776245117188,323.9136657714844" style="fill:#d74300;stroke:#d74300;"></polygon><polygon stroke-linejoin="round" stroke-miterlimit="1" stroke-width="1" points="657.7132873535156,109.6790771484375 459.58837890625,322.52752685546875 609.3776245117188,323.9136657714844" style="fill:#d64200;stroke:#d64200;"></polygon><polygon stroke-linejoin="round" stroke-miterlimit="1" stroke-width="1" points="399.537109375,199.39517211914062 459.58837890625,322.52752685546875 657.7132873535156,109.6790771484375" style="fill:#e34700;stroke:#e34700;"></polygon><polygon stroke-linejoin="round" stroke-miterlimit="1" stroke-width="1" points="665.8176879882812,65.1114501953125 399.537109375,199.39517211914062 657.7132873535156,109.6790771484375" style="fill:#dc4500;stroke:#dc4500;"></polygon><polygon stroke-linejoin="round" stroke-miterlimit="1" stroke-width="1" points="392.4359130859375,79.10308837890625 399.537109375,199.39517211914062 665.8176879882812,65.1114501953125" style="fill:#ec4b00;stroke:#ec4b00;"></polygon><polygon stroke-linejoin="round" stroke-miterlimit="1" stroke-width="1" points="525.983642578125,-105.15887451171875 392.4359130859375,79.10308837890625 665.8176879882812,65.1114501953125" style="fill:#e64900;stroke:#e64900;"></polygon><polygon stroke-linejoin="round" stroke-miterlimit="1" stroke-width="1" points="396.83978271484375,-35.48870849609375 392.4359130859375,79.10308837890625 525.983642578125,-105.15887451171875" style="fill:#f74f00;stroke:#f74f00;"></polygon><polygon stroke-linejoin="round" stroke-miterlimit="1" stroke-width="1" points="435.46990966796875,909.4386291503906 351.58404541015625,1109.2552490234375 406.18695068359375,1136.6226196289062" style="fill:#a22d00;stroke:#a22d00;"></polygon><polygon stroke-linejoin="round" stroke-miterlimit="1" stroke-width="1" points="281.0242919921875,909.3490295410156 351.58404541015625,1109.2552490234375 435.46990966796875,909.4386291503906" style="fill:#a83000;stroke:#a83000;"></polygon><polygon stroke-linejoin="round" stroke-miterlimit="1" stroke-width="1" points="496.4938049316406,809.7482604980469 281.0242919921875,909.3490295410156 435.46990966796875,909.4386291503906" style="fill:#ae3200;stroke:#ae3200;"></polygon><polygon stroke-linejoin="round" stroke-miterlimit="1" stroke-width="1" points="281.8995361328125,792.5289611816406 281.0242919921875,909.3490295410156 496.4938049316406,809.7482604980469" style="fill:#b43400;stroke:#b43400;"></polygon><polygon stroke-linejoin="round" stroke-miterlimit="1" stroke-width="1" points="505.6033935546875,700.9942626953125 281.8995361328125,792.5289611816406 496.4938049316406,809.7482604980469" style="fill:#b73600;stroke:#b73600;"></polygon><polygon stroke-linejoin="round" stroke-miterlimit="1" stroke-width="1" points="358.6160888671875,741.8280639648438 281.8995361328125,792.5289611816406 505.6033935546875,700.9942626953125" style="fill:#bb3700;stroke:#bb3700;"></polygon><polygon stroke-linejoin="round" stroke-miterlimit="1" stroke-width="1" points="499.1197814941406,578.1219329833984 358.6160888671875,741.8280639648438 505.6033935546875,700.9942626953125" style="fill:#be3800;stroke:#be3800;"></polygon><polygon stroke-linejoin="round" stroke-miterlimit="1" stroke-width="1" points="351.6341552734375,641.8516387939453 358.6160888671875,741.8280639648438 499.1197814941406,578.1219329833984" style="fill:#c33b00;stroke:#c33b00;"></polygon><polygon stroke-linejoin="round" stroke-miterlimit="1" stroke-width="1" points="366.45611572265625,478.1330146789551 351.6341552734375,641.8516387939453 499.1197814941406,578.1219329833984" style="fill:#cd3e00;stroke:#cd3e00;"></polygon><polygon stroke-linejoin="round" stroke-miterlimit="1" stroke-width="1" points="294.16241455078125,557.053394317627 351.6341552734375,641.8516387939453 366.45611572265625,478.1330146789551" style="fill:#d34100;stroke:#d34100;"></polygon><polygon stroke-linejoin="round" stroke-miterlimit="1" stroke-width="1" points="507.12518310546875,352.1909484863281 294.16241455078125,557.053394317627 366.45611572265625,478.1330146789551" style="fill:#470900;stroke:#470900;"></polygon><polygon stroke-linejoin="round" stroke-miterlimit="1" stroke-width="1" points="208.3580322265625,358.1603240966797 294.16241455078125,557.053394317627 507.12518310546875,352.1909484863281" style="fill:#e64800;stroke:#e64800;"></polygon><polygon stroke-linejoin="round" stroke-miterlimit="1" stroke-width="1" points="459.58837890625,322.52752685546875 208.3580322265625,358.1603240966797 507.12518310546875,352.1909484863281" style="fill:#e94a00;stroke:#e94a00;"></polygon><polygon stroke-linejoin="round" stroke-miterlimit="1" stroke-width="1" points="299.17523193359375,322.6034698486328 208.3580322265625,358.1603240966797 459.58837890625,322.52752685546875" style="fill:#f44e00;stroke:#f44e00;"></polygon><polygon stroke-linejoin="round" stroke-miterlimit="1" stroke-width="1" points="399.537109375,199.39517211914062 299.17523193359375,322.6034698486328 459.58837890625,322.52752685546875" style="fill:#f14d00;stroke:#f14d00;"></polygon><polygon stroke-linejoin="round" stroke-miterlimit="1" stroke-width="1" points="315.19287109375,201.4820556640625 299.17523193359375,322.6034698486328 399.537109375,199.39517211914062" style="fill:#fe5200;stroke:#fe5200;"></polygon><polygon stroke-linejoin="round" stroke-miterlimit="1" stroke-width="1" points="392.4359130859375,79.10308837890625 315.19287109375,201.4820556640625 399.537109375,199.39517211914062" style="fill:#ff5300;stroke:#ff5300;"></polygon><polygon stroke-linejoin="round" stroke-miterlimit="1" stroke-width="1" points="206.4718017578125,10.7777099609375 315.19287109375,201.4820556640625 392.4359130859375,79.10308837890625" style="fill:#ff5a00;stroke:#ff5a00;"></polygon><polygon stroke-linejoin="round" stroke-miterlimit="1" stroke-width="1" points="396.83978271484375,-35.48870849609375 206.4718017578125,10.7777099609375 392.4359130859375,79.10308837890625" style="fill:#ff5900;stroke:#ff5900;"></polygon><polygon stroke-linejoin="round" stroke-miterlimit="1" stroke-width="1" points="211.19140625,-55.2181396484375 206.4718017578125,10.7777099609375 396.83978271484375,-35.48870849609375" style="fill:#ff5e00;stroke:#ff5e00;"></polygon><polygon stroke-linejoin="round" stroke-miterlimit="1" stroke-width="1" points="281.0242919921875,909.3490295410156 40.769775390625,1080.2896728515625 351.58404541015625,1109.2552490234375" style="fill:#a72f00;stroke:#a72f00;"></polygon><polygon stroke-linejoin="round" stroke-miterlimit="1" stroke-width="1" points="50.986328125,996.006591796875 40.769775390625,1080.2896728515625 281.0242919921875,909.3490295410156" style="fill:#ab3100;stroke:#ab3100;"></polygon><polygon stroke-linejoin="round" stroke-miterlimit="1" stroke-width="1" points="281.8995361328125,792.5289611816406 50.986328125,996.006591796875 281.0242919921875,909.3490295410156" style="fill:#b33400;stroke:#b33400;"></polygon><polygon stroke-linejoin="round" stroke-miterlimit="1" stroke-width="1" points="46.625732421875,872.6641540527344 50.986328125,996.006591796875 281.8995361328125,792.5289611816406" style="fill:#b53500;stroke:#b53500;"></polygon><polygon stroke-linejoin="round" stroke-miterlimit="1" stroke-width="1" points="358.6160888671875,741.8280639648438 46.625732421875,872.6641540527344 281.8995361328125,792.5289611816406" style="fill:#bc3800;stroke:#bc3800;"></polygon><polygon stroke-linejoin="round" stroke-miterlimit="1" stroke-width="1" points="199.39398193359375,732.6058502197266 46.625732421875,872.6641540527344 358.6160888671875,741.8280639648438" style="fill:#bf3900;stroke:#bf3900;"></polygon><polygon stroke-linejoin="round" stroke-miterlimit="1" stroke-width="1" points="351.6341552734375,641.8516387939453 199.39398193359375,732.6058502197266 358.6160888671875,741.8280639648438" style="fill:#c33b00;stroke:#c33b00;"></polygon><polygon stroke-linejoin="round" stroke-miterlimit="1" stroke-width="1" points="171.8828125,660.7268981933594 199.39398193359375,732.6058502197266 351.6341552734375,641.8516387939453" style="fill:#ca3d00;stroke:#ca3d00;"></polygon><polygon stroke-linejoin="round" stroke-miterlimit="1" stroke-width="1" points="294.16241455078125,557.053394317627 171.8828125,660.7268981933594 351.6341552734375,641.8516387939453" style="fill:#d04000;stroke:#d04000;"></polygon><polygon stroke-linejoin="round" stroke-miterlimit="1" stroke-width="1" points="45.19842529296875,519.4599113464355 171.8828125,660.7268981933594 294.16241455078125,557.053394317627" style="fill:#db4400;stroke:#db4400;"></polygon><polygon stroke-linejoin="round" stroke-miterlimit="1" stroke-width="1" points="208.3580322265625,358.1603240966797 45.19842529296875,519.4599113464355 294.16241455078125,557.053394317627" style="fill:#eb4b00;stroke:#eb4b00;"></polygon><polygon stroke-linejoin="round" stroke-miterlimit="1" stroke-width="1" points="48.405029296875,408.24774169921875 45.19842529296875,519.4599113464355 208.3580322265625,358.1603240966797" style="fill:#fa5000;stroke:#fa5000;"></polygon><polygon stroke-linejoin="round" stroke-miterlimit="1" stroke-width="1" points="299.17523193359375,322.6034698486328 48.405029296875,408.24774169921875 208.3580322265625,358.1603240966797" style="fill:#ff5300;stroke:#ff5300;"></polygon><polygon stroke-linejoin="round" stroke-miterlimit="1" stroke-width="1" points="188.491455078125,236.99703979492188 48.405029296875,408.24774169921875 299.17523193359375,322.6034698486328" style="fill:#ff5600;stroke:#ff5600;"></polygon><polygon stroke-linejoin="round" stroke-miterlimit="1" stroke-width="1" points="315.19287109375,201.4820556640625 188.491455078125,236.99703979492188 299.17523193359375,322.6034698486328" style="fill:#ff5600;stroke:#ff5600;"></polygon><polygon stroke-linejoin="round" stroke-miterlimit="1" stroke-width="1" points="185.71234130859375,182.0570068359375 188.491455078125,236.99703979492188 315.19287109375,201.4820556640625" style="fill:#ff5c00;stroke:#ff5c00;"></polygon><polygon stroke-linejoin="round" stroke-miterlimit="1" stroke-width="1" points="206.4718017578125,10.7777099609375 185.71234130859375,182.0570068359375 315.19287109375,201.4820556640625" style="fill:#ff5f00;stroke:#ff5f00;"></polygon><polygon stroke-linejoin="round" stroke-miterlimit="1" stroke-width="1" points="189.21514892578125,61.092071533203125 185.71234130859375,182.0570068359375 206.4718017578125,10.7777099609375" style="fill:#ff6400;stroke:#ff6400;"></polygon><polygon stroke-linejoin="round" stroke-miterlimit="1" stroke-width="1" points="211.19140625,-55.2181396484375 189.21514892578125,61.092071533203125 206.4718017578125,10.7777099609375" style="fill:#ff6500;stroke:#ff6500;"></polygon><polygon stroke-linejoin="round" stroke-miterlimit="1" stroke-width="1" points="40.77734375,-80.20806884765625 189.21514892578125,61.092071533203125 211.19140625,-55.2181396484375" style="fill:#ff6900;stroke:#ff6900;"></polygon><polygon stroke-linejoin="round" stroke-miterlimit="1" stroke-width="1" points="50.986328125,996.006591796875 38.9954833984375,1090.0557861328125 40.769775390625,1080.2896728515625" style="fill:#a72f00;stroke:#a72f00;"></polygon><polygon stroke-linejoin="round" stroke-miterlimit="1" stroke-width="1" points="-14.216064453125,912.4859924316406 38.9954833984375,1090.0557861328125 50.986328125,996.006591796875" style="fill:#ac3100;stroke:#ac3100;"></polygon><polygon stroke-linejoin="round" stroke-miterlimit="1" stroke-width="1" points="46.625732421875,872.6641540527344 -14.216064453125,912.4859924316406 50.986328125,996.006591796875" style="fill:#b23400;stroke:#b23400;"></polygon><polygon stroke-linejoin="round" stroke-miterlimit="1" stroke-width="1" points="33.67266845703125,872.1300048828125 -14.216064453125,912.4859924316406 46.625732421875,872.6641540527344" style="fill:#b63500;stroke:#b63500;"></polygon><polygon stroke-linejoin="round" stroke-miterlimit="1" stroke-width="1" points="199.39398193359375,732.6058502197266 33.67266845703125,872.1300048828125 46.625732421875,872.6641540527344" style="fill:#bc3800;stroke:#bc3800;"></polygon><polygon stroke-linejoin="round" stroke-miterlimit="1" stroke-width="1" points="-2.93280029296875,682.3855438232422 33.67266845703125,872.1300048828125 199.39398193359375,732.6058502197266" style="fill:#c43b00;stroke:#c43b00;"></polygon><polygon stroke-linejoin="round" stroke-miterlimit="1" stroke-width="1" points="171.8828125,660.7268981933594 -2.93280029296875,682.3855438232422 199.39398193359375,732.6058502197266" style="fill:#cc3e00;stroke:#cc3e00;"></polygon><polygon stroke-linejoin="round" stroke-miterlimit="1" stroke-width="1" points="5.80865478515625,569.4696884155273 -2.93280029296875,682.3855438232422 171.8828125,660.7268981933594" style="fill:#d54200;stroke:#d54200;"></polygon><polygon stroke-linejoin="round" stroke-miterlimit="1" stroke-width="1" points="45.19842529296875,519.4599113464355 5.80865478515625,569.4696884155273 171.8828125,660.7268981933594" style="fill:#de4500;stroke:#de4500;"></polygon><polygon stroke-linejoin="round" stroke-miterlimit="1" stroke-width="1" points="8.9302978515625,454.3329162597656 5.80865478515625,569.4696884155273 45.19842529296875,519.4599113464355" style="fill:#eb4b00;stroke:#eb4b00;"></polygon><polygon stroke-linejoin="round" stroke-miterlimit="1" stroke-width="1" points="48.405029296875,408.24774169921875 8.9302978515625,454.3329162597656 45.19842529296875,519.4599113464355" style="fill:#f54f00;stroke:#f54f00;"></polygon><polygon stroke-linejoin="round" stroke-miterlimit="1" stroke-width="1" points="-107.1917724609375,414.0683898925781 8.9302978515625,454.3329162597656 48.405029296875,408.24774169921875" style="fill:#fd5200;stroke:#fd5200;"></polygon><polygon stroke-linejoin="round" stroke-miterlimit="1" stroke-width="1" points="188.491455078125,236.99703979492188 -107.1917724609375,414.0683898925781 48.405029296875,408.24774169921875" style="fill:#ff5800;stroke:#ff5800;"></polygon><polygon stroke-linejoin="round" stroke-miterlimit="1" stroke-width="1" points="1.04974365234375,315.970703125 -107.1917724609375,414.0683898925781 188.491455078125,236.99703979492188" style="fill:#ff5b00;stroke:#ff5b00;"></polygon><polygon stroke-linejoin="round" stroke-miterlimit="1" stroke-width="1" points="185.71234130859375,182.0570068359375 1.04974365234375,315.970703125 188.491455078125,236.99703979492188" style="fill:#ff5f00;stroke:#ff5f00;"></polygon><polygon stroke-linejoin="round" stroke-miterlimit="1" stroke-width="1" points="-57.7833251953125,206.014892578125 1.04974365234375,315.970703125 185.71234130859375,182.0570068359375" style="fill:#ff6300;stroke:#ff6300;"></polygon><polygon stroke-linejoin="round" stroke-miterlimit="1" stroke-width="1" points="189.21514892578125,61.092071533203125 -57.7833251953125,206.014892578125 185.71234130859375,182.0570068359375" style="fill:#ff6700;stroke:#ff6700;"></polygon><polygon stroke-linejoin="round" stroke-miterlimit="1" stroke-width="1" points="-84.307373046875,80.7904052734375 -57.7833251953125,206.014892578125 189.21514892578125,61.092071533203125" style="fill:#ff6c00;stroke:#ff6c00;"></polygon><polygon stroke-linejoin="round" stroke-miterlimit="1" stroke-width="1" points="40.77734375,-80.20806884765625 -84.307373046875,80.7904052734375 189.21514892578125,61.092071533203125" style="fill:#ff6e00;stroke:#ff6e00;"></polygon><polygon stroke-linejoin="round" stroke-miterlimit="1" stroke-width="1" points="-73.69677734375,-136.6624755859375 -84.307373046875,80.7904052734375 40.77734375,-80.20806884765625" style="fill:#ff6e00;stroke:#ff6e00;"></polygon><polygon stroke-linejoin="round" stroke-miterlimit="1" stroke-width="1" points="-14.216064453125,912.4859924316406 -122.7286376953125,1070.8013916015625 38.9954833984375,1090.0557861328125" style="fill:#a93000;stroke:#a93000;"></polygon><polygon stroke-linejoin="round" stroke-miterlimit="1" stroke-width="1" points="-277.9031982421875,978.5587158203125 -122.7286376953125,1070.8013916015625 -14.216064453125,912.4859924316406" style="fill:#ac3100;stroke:#ac3100;"></polygon><polygon stroke-linejoin="round" stroke-miterlimit="1" stroke-width="1" points="33.67266845703125,872.1300048828125 -277.9031982421875,978.5587158203125 -14.216064453125,912.4859924316406" style="fill:#b23400;stroke:#b23400;"></polygon><polygon stroke-linejoin="round" stroke-miterlimit="1" stroke-width="1" points="-216.55517578125,907.204345703125 -277.9031982421875,978.5587158203125 33.67266845703125,872.1300048828125" style="fill:#b23400;stroke:#b23400;"></polygon><polygon stroke-linejoin="round" stroke-miterlimit="1" stroke-width="1" points="-2.93280029296875,682.3855438232422 -216.55517578125,907.204345703125 33.67266845703125,872.1300048828125" style="fill:#bd3800;stroke:#bd3800;"></polygon><polygon stroke-linejoin="round" stroke-miterlimit="1" stroke-width="1" points="-228.5487060546875,679.5575561523438 -216.55517578125,907.204345703125 -2.93280029296875,682.3855438232422" style="fill:#c33b00;stroke:#c33b00;"></polygon><polygon stroke-linejoin="round" stroke-miterlimit="1" stroke-width="1" points="5.80865478515625,569.4696884155273 -228.5487060546875,679.5575561523438 -2.93280029296875,682.3855438232422" style="fill:#d44100;stroke:#d44100;"></polygon><polygon stroke-linejoin="round" stroke-miterlimit="1" stroke-width="1" points="-277.5499267578125,629.2989044189453 -228.5487060546875,679.5575561523438 5.80865478515625,569.4696884155273" style="fill:#d44100;stroke:#d44100;"></polygon><polygon stroke-linejoin="round" stroke-miterlimit="1" stroke-width="1" points="8.9302978515625,454.3329162597656 -277.5499267578125,629.2989044189453 5.80865478515625,569.4696884155273" style="fill:#e34700;stroke:#e34700;"></polygon><polygon stroke-linejoin="round" stroke-miterlimit="1" stroke-width="1" points="-170.4200439453125,553.8099060058594 -277.5499267578125,629.2989044189453 8.9302978515625,454.3329162597656" style="fill:#e24700;stroke:#e24700;"></polygon><polygon stroke-linejoin="round" stroke-miterlimit="1" stroke-width="1" points="-107.1917724609375,414.0683898925781 -170.4200439453125,553.8099060058594 8.9302978515625,454.3329162597656" style="fill:#f24d00;stroke:#f24d00;"></polygon><polygon stroke-linejoin="round" stroke-miterlimit="1" stroke-width="1" points="-139.9249267578125,421.08580017089844 -170.4200439453125,553.8099060058594 -107.1917724609375,414.0683898925781" style="fill:#f14d00;stroke:#f14d00;"></polygon><polygon stroke-linejoin="round" stroke-miterlimit="1" stroke-width="1" points="1.04974365234375,315.970703125 -139.9249267578125,421.08580017089844 -107.1917724609375,414.0683898925781" style="fill:#ff5500;stroke:#ff5500;"></polygon><polygon stroke-linejoin="round" stroke-miterlimit="1" stroke-width="1" points="-205.4129638671875,324.18455505371094 -139.9249267578125,421.08580017089844 1.04974365234375,315.970703125" style="fill:#ff5700;stroke:#ff5700;"></polygon><polygon stroke-linejoin="round" stroke-miterlimit="1" stroke-width="1" points="-57.7833251953125,206.014892578125 -205.4129638671875,324.18455505371094 1.04974365234375,315.970703125" style="fill:#ff5e00;stroke:#ff5e00;"></polygon><polygon stroke-linejoin="round" stroke-miterlimit="1" stroke-width="1" points="-254.86572265625,107.58798217773438 -205.4129638671875,324.18455505371094 -57.7833251953125,206.014892578125" style="fill:#ff6000;stroke:#ff6000;"></polygon><polygon stroke-linejoin="round" stroke-miterlimit="1" stroke-width="1" points="-84.307373046875,80.7904052734375 -254.86572265625,107.58798217773438 -57.7833251953125,206.014892578125" style="fill:#ff6700;stroke:#ff6700;"></polygon><polygon stroke-linejoin="round" stroke-miterlimit="1" stroke-width="1" points="-181.0245361328125,88.9759521484375 -254.86572265625,107.58798217773438 -84.307373046875,80.7904052734375" style="fill:#ff6600;stroke:#ff6600;"></polygon><polygon stroke-linejoin="round" stroke-miterlimit="1" stroke-width="1" points="-73.69677734375,-136.6624755859375 -181.0245361328125,88.9759521484375 -84.307373046875,80.7904052734375" style="fill:#ff6c00;stroke:#ff6c00;"></polygon><polygon stroke-linejoin="round" stroke-miterlimit="1" stroke-width="1" points="-121.9052734375,-94.657470703125 -181.0245361328125,88.9759521484375 -73.69677734375,-136.6624755859375" style="fill:#ff6a00;stroke:#ff6a00;"></polygon></svg>